<?xml version="1.0" standalone="no"?>
<!DOCTYPE svg PUBLIC "-//W3C//DTD SVG 20010904//EN"
 "http://www.w3.org/TR/2001/REC-SVG-20010904/DTD/svg10.dtd">
<svg version="1.0" xmlns="http://www.w3.org/2000/svg"
 width="500.000000pt" height="500.000000pt" viewBox="0 0 500.000000 500.000000"
 preserveAspectRatio="xMidYMid meet">
<metadata>
Created by potrace 1.14, written by Peter Selinger 2001-2017
</metadata>
<g transform="translate(0.000000,500.000000) scale(0.100000,-0.100000)"
fill="#000000" stroke="none">
<path d="M2320 4994 c-19 -2 -78 -9 -130 -15 -467 -53 -946 -265 -1315 -581
-471 -404 -769 -957 -856 -1588 -17 -122 -18 -497 -1 -615 58 -412 185 -751
407 -1085 397 -598 1032 -990 1765 -1091 122 -17 497 -18 615 -1 412 58 751
185 1085 407 598 397 990 1032 1091 1765 17 122 18 497 1 615 -58 412 -185
751 -407 1085 -391 588 -1016 981 -1730 1086 -96 14 -453 27 -525 18z m-346
-869 c124 -31 227 -72 389 -155 l138 -70 122 64 c148 77 275 129 405 163 185
48 417 32 594 -43 280 -118 457 -379 520 -769 15 -99 15 -504 -1 -695 -36
-423 -115 -804 -226 -1090 -90 -232 -246 -503 -335 -584 -141 -127 -372 -135
-562 -20 -131 80 -239 259 -352 584 -19 54 -46 121 -60 149 -27 52 -88 121
-108 121 -17 0 -83 -76 -107 -123 -12 -23 -41 -100 -66 -172 -25 -71 -78 -195
-117 -274 -61 -124 -81 -154 -138 -212 -149 -149 -377 -197 -553 -116 -76 35
-128 85 -202 196 -232 351 -374 793 -439 1371 -23 196 -39 557 -31 690 24 431
154 710 412 880 107 71 226 110 408 134 62 8 222 -6 309 -29z"/>
<path d="M1582 3825 c-202 -57 -324 -192 -390 -434 -26 -94 -26 -101 -26 -416
0 -238 4 -358 17 -470 59 -509 168 -877 349 -1182 87 -145 105 -163 168 -163
73 0 139 36 178 97 48 75 115 225 167 373 26 74 65 167 88 205 51 87 145 183
217 221 49 26 65 29 150 29 85 0 101 -3 150 -29 72 -38 166 -134 217 -221 23
-38 62 -131 88 -205 54 -152 140 -341 180 -394 36 -47 98 -76 164 -76 64 0 80
16 169 163 178 295 290 674 349 1182 12 110 17 234 17 465 1 296 0 320 -22
405 -79 312 -262 464 -558 465 -104 0 -217 -28 -338 -84 l-71 -32 162 -83
c136 -69 165 -87 185 -119 62 -99 2 -226 -113 -239 -41 -5 -67 7 -384 166
-187 94 -403 204 -481 244 -77 40 -185 88 -240 107 -86 29 -115 34 -219 37
-84 2 -136 -2 -173 -12z"/>
</g>
</svg>
